<svg width="193" height="30" viewBox="0 0 193 30" fill="none" xmlns="http://www.w3.org/2000/svg">
<path d="M2.95688 15.5317C2.95688 15.1363 2.90048 14.741 2.90048 14.3456C2.90048 12.8772 2.90048 11.4087 2.95688 9.94028C2.95688 9.8838 2.90048 9.77085 2.90048 9.71437C2.90048 8.81071 2.95688 7.90704 2.90048 7.05986C2.84407 4.97014 2.84407 2.9369 3.06969 0.847183C3.06969 0.50831 3.12609 0 3.74653 0C4.42338 0 4.8182 0.395352 4.7618 0.960141C4.7054 2.31563 4.53618 3.67113 4.64899 5.02662C4.8182 7.00338 4.7054 8.98014 4.7618 10.9569C4.8182 12.7077 4.7618 14.5151 4.8182 16.2659C4.87461 17.9038 4.98742 19.5982 4.98742 21.2361C4.98742 22.648 4.8182 24.1165 4.7618 25.5285C4.7618 25.8673 4.7054 26.2062 4.93101 26.5451C4.64899 26.9404 5.15663 27.3923 4.7618 27.7876C4.7618 27.9006 4.7054 28.07 4.7054 28.183C4.8182 28.7477 4.59259 28.9172 3.85934 28.7477C3.69013 28.6913 3.46451 28.7477 3.35171 28.6348C2.84407 28.2394 3.06969 27.7311 3.06969 27.2793C3.01328 25.0766 3.01328 22.8739 3.01328 20.6713C3.01328 19.3158 3.01328 17.9603 2.95688 16.6613C2.95688 16.2659 2.90048 15.8706 2.95688 15.5317Z" fill="#C0C0C0"/>
<path d="M11.3401 28.8042C11.2837 28.8042 11.2837 28.8042 11.2273 28.8042C10.1556 28.8042 9.98643 28.6348 9.93003 27.6747C9.87362 27.1663 9.93003 26.658 9.93003 26.1497C9.93003 25.3025 9.93003 24.4554 10.0428 23.6647C10.0992 23.3823 9.98643 23.0434 9.98643 22.761C9.98643 21.9703 10.0428 21.1796 9.98643 20.3324C9.98643 20.05 9.93003 19.7111 9.93003 19.4287C10.0428 18.6945 9.81722 17.9603 9.93003 17.2261C10.0428 16.4918 9.81722 15.7576 9.98643 15.0234C10.0992 14.5151 10.0428 13.9503 9.98643 13.3855C9.93003 13.1031 9.98643 12.8772 10.0428 12.6513C10.0992 12.03 10.0992 11.4087 10.1556 10.731C10.212 9.94028 10.212 9.0931 10.2684 8.3024C10.3249 7.90704 10.2684 7.51169 10.2684 7.17282C10.2684 6.83394 10.3813 6.49507 10.3249 6.21268C10.2684 5.8738 10.2684 5.53493 10.3249 5.25254C10.3813 4.63127 10.3249 3.95352 10.3249 3.33225C10.3813 2.48507 10.1556 1.63789 10.3249 0.790704C10.3813 0.282394 10.7197 0 11.2273 0C11.5657 0 11.6785 0.112958 11.7913 0.451831C11.9606 0.903662 11.8478 1.35549 11.9042 1.80732C11.9606 2.59803 12.0734 3.38873 12.0734 4.17944C12.0734 5.47845 12.017 6.77747 12.017 8.07648C12.017 10.1097 11.9042 12.143 11.9606 14.2327C12.017 15.6447 12.017 17.0001 12.017 18.4121C12.0734 19.8241 12.0734 21.2361 12.0734 22.5916C12.1298 24.2859 12.1298 25.9803 12.1862 27.6182C12.1862 27.9006 12.2426 28.1265 12.299 28.4089C12.299 28.5783 12.299 28.6913 12.017 28.7478C11.7913 28.8042 11.5657 28.8042 11.3401 28.8042Z" fill="#C0C0C0"/>
<path d="M27.1021 28.754C27.3277 28.6411 27.3277 28.5281 27.2149 28.3022C27.1585 28.2457 27.1585 28.1327 27.1585 28.0763C27.0457 27.3985 27.1021 26.7208 27.1021 25.9865C27.1021 25.1958 27.1585 24.4616 27.1021 23.6709C27.1021 22.7108 27.1585 21.6942 27.1021 20.734C27.1021 20.3387 27.1585 19.9433 27.0457 19.548C27.1585 19.435 27.1021 19.322 27.1021 19.1526C27.1021 18.7572 27.1021 18.4184 27.1021 18.023C27.1021 17.6842 27.0457 17.2888 27.1021 16.9499C27.2149 16.5546 26.9893 16.2157 27.1021 15.8768C27.0457 15.0861 27.1021 14.2954 27.0457 13.4482C27.0457 12.6575 27.1021 11.8103 27.0457 11.0196C27.0457 10.5113 27.0457 10.0595 27.0457 9.55119C26.9893 8.92992 26.9893 8.30866 26.9893 7.63091C26.9893 6.61429 26.9893 5.59767 26.9893 4.52457C26.9893 3.62091 26.9329 2.71725 26.9329 1.87007C26.9329 1.41823 26.9329 0.909925 26.9893 0.458094C26.9893 0.288657 26.9329 0.232178 26.8201 0.232178H26.7636C25.8612 0.232178 25.4664 0.740489 25.5792 1.81359C25.6356 2.60429 25.6356 3.395 25.6356 4.12922C25.6356 4.58105 25.6356 5.03288 25.6356 5.48471C25.6356 6.16246 25.692 6.84021 25.6356 7.51795C25.5792 7.85683 25.5792 8.1957 25.6356 8.53458C25.692 8.81697 25.692 9.09936 25.692 9.38176C25.6356 10.4549 25.7484 11.528 25.692 12.6011C25.692 13.3353 25.7484 14.0695 25.6356 14.7473C25.6356 14.8602 25.6356 14.9732 25.6356 15.0861C25.6356 15.538 25.6356 15.9898 25.692 16.4416C25.7484 17.5147 25.5792 18.5878 25.692 19.6609C25.7484 20.0563 25.692 20.5081 25.692 20.9034C25.692 21.0729 25.5792 21.1858 25.5792 21.3553C25.6356 21.6377 25.5792 21.9201 25.5792 22.2589C25.5792 22.8802 25.5228 23.445 25.5228 24.0663C25.5228 24.6311 25.5792 25.1394 25.5228 25.7041C25.4664 26.7208 25.4664 27.7374 25.5228 28.6975C25.5228 28.867 25.5792 28.9234 25.692 28.9799C26.1432 29.0364 26.6508 28.9799 27.1021 28.754Z" fill="#C0C0C0"/>
<path d="M18.0314 21.6314C18.0314 20.9537 17.975 20.2194 17.975 19.5417C17.975 18.8075 17.9186 18.1297 17.9186 17.3955C17.9186 16.153 17.9186 14.9104 17.9186 13.6679C17.9186 11.8606 17.975 10.0532 17.9186 8.18944C17.9186 7.28578 17.9186 6.43859 17.9186 5.53493C17.9186 4.2924 17.975 2.99338 18.0314 1.75085C18.0314 1.29901 18.0314 0.790704 18.0314 0.338873C18.0314 0.169437 18.0878 0.112958 18.257 0.112958C18.5391 0.112958 18.8211 0 19.1031 0C19.1595 0 19.2159 0 19.2159 0C19.7799 0.0564789 19.7799 0.0564789 19.7799 0.621268C19.7799 1.97676 19.6107 3.33225 19.5543 4.63127C19.5543 5.81732 19.6107 7.00338 19.6671 8.13296C19.6671 8.75423 19.7235 9.37549 19.7799 9.99676C19.8364 10.9569 19.8364 11.9735 19.8364 12.9901C19.8364 14.4586 19.7799 15.8706 19.7799 17.339C19.7799 18.2427 19.7799 19.2028 19.7235 20.1065C19.7235 21.462 19.6671 22.8739 19.6671 24.2294C19.6671 24.3989 19.6107 24.5683 19.6107 24.7942C19.6107 25.359 19.5543 25.8673 19.5543 26.4321C19.5543 26.9969 19.5543 27.5617 19.6671 28.1265C19.6671 28.4654 19.1595 28.7478 18.7083 28.7478C18.6519 28.7478 18.6519 28.7478 18.5955 28.7478C18.4263 28.7478 18.2006 28.9172 18.0878 28.7478C17.975 28.5783 17.9186 28.3524 17.9186 28.1265C17.8622 27.4487 17.975 26.8275 17.9186 26.1497C17.9186 25.8108 17.975 25.472 17.9186 25.1331C17.975 24.7942 17.975 24.3989 17.975 24.06C18.0314 23.2128 18.0314 22.4786 18.0314 21.6314C18.0314 21.6879 18.0314 21.6314 18.0314 21.6314Z" fill="#C0C0C0"/>
<path d="M1 23.9942L7.38796 16.9831L9.2576 19.4759L17.671 10.5951L21.2545 14.9576L29.5121 4.67456" stroke="#E27C09" stroke-width="2"/>
<path d="M46.634 13.168C49.196 13.168 50.512 11.922 50.512 9.78V2.99H48.482V9.752C48.482 10.788 47.88 11.544 46.592 11.544C45.234 11.544 44.716 10.816 44.716 9.78V2.99H42.686V9.78C42.686 11.95 44.044 13.168 46.634 13.168ZM56.6332 13.21C58.0192 13.21 58.9852 12.79 59.6712 12.146C60.3432 11.516 60.7212 10.662 60.7772 9.78H58.7892C58.6632 10.83 57.8232 11.544 56.6332 11.544C54.9532 11.544 53.8892 10.074 53.8892 8.03C53.8892 6.042 54.7712 4.502 56.6192 4.502C57.7952 4.502 58.5512 5.16 58.7332 6.168H60.7492C60.5392 4.264 59.0832 2.794 56.6192 2.794C53.6652 2.794 51.8172 5.062 51.8172 8.03C51.8172 11.04 53.8192 13.21 56.6332 13.21ZM62.1015 13H68.8355V11.306H64.1315V2.99H62.1015V13ZM69.5422 13H71.6002L72.2582 10.872H75.8702L76.5422 13H78.6562L75.1282 2.99H73.0282L69.5422 13ZM73.6302 6.434C73.7982 5.902 74.0502 4.894 74.0502 4.894H74.0782C74.0782 4.894 74.3162 5.902 74.4842 6.434L75.3802 9.318H72.7342L73.6302 6.434ZM82.4102 13H89.1442V11.306H84.4402V2.99H82.4102V13ZM89.8509 13H91.9089L92.5669 10.872H96.1789L96.8509 13H98.9649L95.4369 2.99H93.3369L89.8509 13ZM93.9389 6.434C94.1069 5.902 94.3589 4.894 94.3589 4.894H94.3869C94.3869 4.894 94.6249 5.902 94.7929 6.434L95.6889 9.318H93.0429L93.9389 6.434ZM101.534 13H103.41L104.642 7.638C104.81 6.91 104.964 5.86 104.964 5.86H104.992C104.992 5.86 105.174 6.91 105.342 7.638L106.56 13H108.45L111.306 2.99H109.304L108.044 7.946C107.848 8.814 107.554 10.144 107.554 10.144H107.526C107.526 10.144 107.274 8.884 107.064 8.002L105.972 2.99H104.012L102.92 8.016C102.71 8.898 102.458 10.144 102.458 10.144H102.43C102.43 10.144 102.192 8.814 101.996 7.96L100.694 2.99H98.6218L101.534 13ZM119.44 13.21C120.826 13.21 121.792 12.79 122.478 12.146C123.15 11.516 123.528 10.662 123.584 9.78H121.596C121.47 10.83 120.63 11.544 119.44 11.544C117.76 11.544 116.696 10.074 116.696 8.03C116.696 6.042 117.578 4.502 119.426 4.502C120.602 4.502 121.358 5.16 121.54 6.168H123.556C123.346 4.264 121.89 2.794 119.426 2.794C116.472 2.794 114.624 5.062 114.624 8.03C114.624 11.04 116.626 13.21 119.44 13.21ZM129.304 13.224C132.258 13.224 134.12 11.012 134.12 8.016C134.12 5.02 132.258 2.794 129.304 2.794C126.35 2.794 124.474 5.02 124.474 8.016C124.474 11.012 126.35 13.224 129.304 13.224ZM129.318 11.558C127.484 11.558 126.546 10.004 126.546 8.016C126.546 6.014 127.484 4.46 129.318 4.46C131.152 4.46 132.048 6.014 132.048 8.016C132.048 10.004 131.152 11.558 129.318 11.558ZM137.65 13H139.498L142.872 2.99H140.814L139.064 8.786C138.868 9.43 138.63 10.382 138.63 10.382H138.602C138.602 10.382 138.364 9.444 138.168 8.786L136.404 2.99H134.276L137.65 13ZM143.966 13H145.996V2.99H143.966V13ZM147.828 13H151.566C152.826 13 153.792 12.65 154.534 12.034C155.584 11.152 156.13 9.724 156.13 8.1C156.13 5.146 154.408 2.99 151.734 2.99H147.828V13ZM149.858 11.25V4.726H151.482C153.204 4.726 154.072 6.112 154.072 8.1C154.072 10.088 153.33 11.25 151.426 11.25H149.858ZM157.22 10.354H161.014V8.716H157.22V10.354ZM163.4 13H165.318V3.34H163.652C163.456 4.572 162.406 5.006 161.23 5.048V6.308H163.4V13ZM170.717 13.21C173.531 13.21 174.553 11.138 174.553 8.072C174.553 4.824 173.125 3.214 170.577 3.214C168.519 3.214 166.965 4.6 166.965 6.574C166.965 8.618 168.449 9.948 170.395 9.948C171.445 9.948 172.117 9.486 172.621 8.898H172.649C172.635 9.892 172.425 10.676 172.047 11.152C171.711 11.572 171.263 11.754 170.661 11.754C169.807 11.754 169.359 11.278 169.205 10.704H167.357C167.567 12.146 168.715 13.21 170.717 13.21ZM170.661 8.408C169.485 8.408 168.785 7.638 168.785 6.546C168.785 5.51 169.569 4.712 170.675 4.712C171.767 4.712 172.593 5.482 172.593 6.574C172.593 7.68 171.753 8.408 170.661 8.408Z" fill="#555526"/>
<path d="M42.832 27H46.862C47.824 27 48.578 26.701 49.059 26.207C49.501 25.752 49.735 25.141 49.735 24.387C49.735 23.152 48.994 22.398 47.928 22.099V22.06C48.864 21.735 49.345 21.098 49.345 20.045C49.345 19.343 49.098 18.771 48.669 18.381C48.201 17.939 47.525 17.705 46.693 17.705H42.832V27ZM43.703 26.207V22.541H46.81C48.032 22.541 48.851 23.217 48.851 24.4C48.851 24.946 48.682 25.375 48.383 25.674C48.045 25.999 47.525 26.207 46.81 26.207H43.703ZM43.703 21.787V18.472H46.706C47.785 18.472 48.461 19.057 48.461 20.11C48.461 21.124 47.811 21.787 46.68 21.787H43.703ZM53.7511 27.169C55.2591 27.169 56.2081 26.298 56.4941 24.972H55.7141C55.4541 25.882 54.8691 26.48 53.7511 26.48C52.2171 26.48 51.4891 25.297 51.4501 23.789H56.5721C56.5851 21.904 55.8441 20.123 53.6861 20.123C51.8271 20.123 50.6181 21.631 50.6181 23.646C50.6181 25.661 51.7361 27.169 53.7511 27.169ZM51.4631 23.152C51.6061 21.813 52.3211 20.786 53.6861 20.786C55.0641 20.786 55.6881 21.826 55.7271 23.152H51.4631ZM57.7396 27H58.5456V22.736C58.5456 21.631 59.4816 20.825 60.6256 20.825C61.5746 20.825 62.1596 21.293 62.1596 22.307V27H62.9656V22.229C62.9656 20.877 62.0686 20.136 60.8206 20.136C59.7546 20.136 59.0266 20.63 58.5716 21.306H58.5456V17.705H57.7396V27ZM64.4201 27H65.2261V20.279H64.4201V27ZM64.4201 18.849H65.2261V17.705H64.4201V18.849ZM66.7204 27H67.5264V22.736C67.5264 21.631 68.4624 20.825 69.6064 20.825C70.5554 20.825 71.1404 21.293 71.1404 22.307V27H71.9464V22.229C71.9464 20.877 71.0494 20.136 69.8014 20.136C68.7354 20.136 68.0074 20.63 67.5524 21.306H67.5264V20.279H66.7204V27ZM75.9238 27.182C76.9378 27.182 77.6138 26.766 78.1078 25.999H78.1338V27H78.9398V17.705H78.1338V21.397H78.1078C77.6788 20.617 76.9248 20.136 75.8978 20.136C74.2988 20.136 73.0248 21.423 73.0248 23.659C73.0248 25.726 74.1168 27.182 75.9238 27.182ZM75.9498 26.506C74.5328 26.506 73.8568 25.245 73.8568 23.672C73.8568 21.995 74.6238 20.812 75.9498 20.812C77.4058 20.812 78.1988 22.021 78.1988 23.672C78.1988 25.349 77.4188 26.506 75.9498 26.506ZM82.6658 27H86.6958C87.6578 27 88.4118 26.701 88.8928 26.207C89.3348 25.752 89.5688 25.141 89.5688 24.387C89.5688 23.152 88.8278 22.398 87.7618 22.099V22.06C88.6978 21.735 89.1788 21.098 89.1788 20.045C89.1788 19.343 88.9318 18.771 88.5028 18.381C88.0348 17.939 87.3588 17.705 86.5268 17.705H82.6658V27ZM83.5368 26.207V22.541H86.6438C87.8658 22.541 88.6848 23.217 88.6848 24.4C88.6848 24.946 88.5158 25.375 88.2168 25.674C87.8788 25.999 87.3588 26.207 86.6438 26.207H83.5368ZM83.5368 21.787V18.472H86.5398C87.6188 18.472 88.2948 19.057 88.2948 20.11C88.2948 21.124 87.6448 21.787 86.5138 21.787H83.5368ZM92.5594 27.156C93.8464 27.156 94.5354 26.532 94.9124 25.999H94.9514V26.142C94.9904 26.792 95.3544 27.091 95.9394 27.091C96.1994 27.091 96.3684 27.039 96.4854 26.987V26.402H96.4464C96.3294 26.428 96.2384 26.454 96.1474 26.454C95.8614 26.441 95.7054 26.272 95.7054 25.869V22.216C95.7054 20.747 94.7954 20.136 93.3264 20.136C91.5974 20.136 90.7394 20.981 90.6484 22.281H91.4414C91.5064 21.28 92.1304 20.786 93.3264 20.786C94.3664 20.786 94.9384 21.228 94.9384 22.138V22.268C94.9384 22.944 94.4574 23.022 93.1314 23.178C91.6104 23.36 90.3624 23.685 90.3624 25.284C90.3624 26.532 91.3114 27.156 92.5594 27.156ZM92.7024 26.506C91.9094 26.506 91.2074 26.22 91.2074 25.284C91.2074 24.127 92.0784 23.958 93.2094 23.802C93.8594 23.711 94.5224 23.594 94.9514 23.36V24.569C94.9514 25.492 94.1714 26.506 92.7024 26.506ZM97.3567 27H98.1627V23.178C98.1627 22.385 98.5137 21.761 99.0337 21.371C99.4497 21.072 99.9827 20.968 100.464 21.046V20.253C100.412 20.24 100.347 20.227 100.243 20.227C99.3067 20.227 98.6047 20.747 98.1887 21.527H98.1627V20.279H97.3567V27ZM103.775 27.182C105.335 27.182 106.297 26.376 106.297 25.18C106.297 23.789 105.322 23.451 103.97 23.165C102.683 22.866 102.046 22.684 102.046 21.917C102.046 21.293 102.54 20.799 103.58 20.799C104.581 20.799 105.179 21.254 105.27 22.125H106.076C105.92 20.942 105.179 20.136 103.58 20.136C102.202 20.136 101.24 20.838 101.24 21.956C101.24 23.256 102.332 23.581 103.697 23.893C105.075 24.205 105.491 24.452 105.491 25.193C105.491 25.973 104.906 26.493 103.788 26.493C102.709 26.493 101.929 26.038 101.812 24.907H100.993C101.071 26.207 101.981 27.182 103.775 27.182ZM110.53 26.233V18.472H112.935C115.158 18.472 116.029 20.032 116.029 22.385C116.029 24.738 115.067 26.233 112.844 26.233H110.53ZM109.659 27H112.87C115.613 27 116.939 25.141 116.939 22.385C116.939 19.629 115.704 17.705 112.961 17.705H109.659V27ZM119.908 27.156C121.195 27.156 121.884 26.532 122.261 25.999H122.3V26.142C122.339 26.792 122.703 27.091 123.288 27.091C123.548 27.091 123.717 27.039 123.834 26.987V26.402H123.795C123.678 26.428 123.587 26.454 123.496 26.454C123.21 26.441 123.054 26.272 123.054 25.869V22.216C123.054 20.747 122.144 20.136 120.675 20.136C118.946 20.136 118.088 20.981 117.997 22.281H118.79C118.855 21.28 119.479 20.786 120.675 20.786C121.715 20.786 122.287 21.228 122.287 22.138V22.268C122.287 22.944 121.806 23.022 120.48 23.178C118.959 23.36 117.711 23.685 117.711 25.284C117.711 26.532 118.66 27.156 119.908 27.156ZM120.051 26.506C119.258 26.506 118.556 26.22 118.556 25.284C118.556 24.127 119.427 23.958 120.558 23.802C121.208 23.711 121.871 23.594 122.3 23.36V24.569C122.3 25.492 121.52 26.506 120.051 26.506ZM126.361 27.052C126.647 27.052 126.881 27.013 127.102 26.935V26.246H127.063C126.946 26.298 126.712 26.35 126.53 26.35C126.101 26.35 125.88 26.194 125.88 25.713V20.942H127.128V20.279H125.88V18.212H125.074V20.279H124.06V20.942H125.074V25.843C125.074 26.701 125.594 27.052 126.361 27.052ZM130.07 27.156C131.357 27.156 132.046 26.532 132.423 25.999H132.462V26.142C132.501 26.792 132.865 27.091 133.45 27.091C133.71 27.091 133.879 27.039 133.996 26.987V26.402H133.957C133.84 26.428 133.749 26.454 133.658 26.454C133.372 26.441 133.216 26.272 133.216 25.869V22.216C133.216 20.747 132.306 20.136 130.837 20.136C129.108 20.136 128.25 20.981 128.159 22.281H128.952C129.017 21.28 129.641 20.786 130.837 20.786C131.877 20.786 132.449 21.228 132.449 22.138V22.268C132.449 22.944 131.968 23.022 130.642 23.178C129.121 23.36 127.873 23.685 127.873 25.284C127.873 26.532 128.822 27.156 130.07 27.156ZM130.213 26.506C129.42 26.506 128.718 26.22 128.718 25.284C128.718 24.127 129.589 23.958 130.72 23.802C131.37 23.711 132.033 23.594 132.462 23.36V24.569C132.462 25.492 131.682 26.506 130.213 26.506ZM137.108 27H137.979V22.957H140.644C142.594 22.957 143.595 22.021 143.595 20.305C143.595 19.538 143.361 18.953 142.945 18.511C142.451 17.991 141.775 17.705 140.761 17.705H137.108V27ZM137.979 22.216V18.472H140.657C141.996 18.472 142.711 19.135 142.711 20.331C142.711 21.501 142.087 22.216 140.579 22.216H137.979ZM144.7 27H145.506V23.178C145.506 22.385 145.857 21.761 146.377 21.371C146.793 21.072 147.326 20.968 147.807 21.046V20.253C147.755 20.24 147.69 20.227 147.586 20.227C146.65 20.227 145.948 20.747 145.532 21.527H145.506V20.279H144.7V27ZM151.268 26.493C149.76 26.493 148.98 25.219 148.98 23.646C148.98 22.073 149.76 20.799 151.268 20.799C152.763 20.799 153.543 22.073 153.543 23.646C153.543 25.219 152.763 26.493 151.268 26.493ZM151.268 27.169C153.205 27.169 154.362 25.648 154.362 23.646C154.362 21.644 153.205 20.123 151.268 20.123C149.331 20.123 148.148 21.644 148.148 23.646C148.148 25.648 149.331 27.169 151.268 27.169ZM154.573 29.041C154.638 29.054 154.807 29.054 154.911 29.054C155.782 29.054 156.341 28.742 156.341 27.65V20.279H155.535V27.611C155.535 28.157 155.301 28.378 154.807 28.378C154.755 28.378 154.638 28.378 154.586 28.365H154.573V29.041ZM155.535 18.849H156.341V17.705H155.535V18.849ZM160.618 27.169C162.126 27.169 163.075 26.298 163.361 24.972H162.581C162.321 25.882 161.736 26.48 160.618 26.48C159.084 26.48 158.356 25.297 158.317 23.789H163.439C163.452 21.904 162.711 20.123 160.553 20.123C158.694 20.123 157.485 21.631 157.485 23.646C157.485 25.661 158.603 27.169 160.618 27.169ZM158.33 23.152C158.473 21.813 159.188 20.786 160.553 20.786C161.931 20.786 162.555 21.826 162.594 23.152H158.33ZM167.271 27.169C168.87 27.169 169.871 26.207 170.027 24.686H169.26C169.13 25.765 168.415 26.48 167.271 26.48C165.75 26.48 165.048 25.206 165.048 23.646C165.048 22.086 165.737 20.799 167.284 20.799C168.324 20.799 168.987 21.306 169.182 22.307H169.988C169.767 20.929 168.766 20.123 167.284 20.123C165.334 20.123 164.216 21.644 164.216 23.646C164.216 25.648 165.308 27.169 167.271 27.169ZM172.929 27.052C173.215 27.052 173.449 27.013 173.67 26.935V26.246H173.631C173.514 26.298 173.28 26.35 173.098 26.35C172.669 26.35 172.448 26.194 172.448 25.713V20.942H173.696V20.279H172.448V18.212H171.642V20.279H170.628V20.942H171.642V25.843C171.642 26.701 172.162 27.052 172.929 27.052Z" fill="#555526"/>
</svg>
